<mxfile host="app.diagrams.net" modified="2022-06-17T10:28:13.294Z" agent="5.0 (Macintosh; Intel Mac OS X 10_15_7) AppleWebKit/537.36 (KHTML, like Gecko) Chrome/102.0.5005.115 Safari/537.36" etag="X_nHA-c5wuWLy50Qag3D" version="20.0.1" type="github">
  <diagram id="QT1x9H8c5nNVxde7SMxW" name="Page-1">
    <mxGraphModel dx="804" dy="630" grid="1" gridSize="10" guides="1" tooltips="1" connect="1" arrows="1" fold="1" page="1" pageScale="1" pageWidth="4681" pageHeight="3300" math="0" shadow="0">
      <root>
        <mxCell id="0" />
        <mxCell id="1" parent="0" />
        <mxCell id="_8k46CDn7pCFzb-syn-X-2" value="Instance famiilies" style="sketch=0;outlineConnect=0;fontColor=#232F3E;gradientColor=none;strokeColor=#232F3E;fillColor=#ffffff;dashed=0;verticalLabelPosition=bottom;verticalAlign=top;align=center;html=1;fontSize=12;fontStyle=0;aspect=fixed;shape=mxgraph.aws4.resourceIcon;resIcon=mxgraph.aws4.instance;" parent="1" vertex="1">
          <mxGeometry x="1240" y="50" width="60" height="60" as="geometry" />
        </mxCell>
        <mxCell id="_8k46CDn7pCFzb-syn-X-3" value="" style="sketch=0;outlineConnect=0;fontColor=#232F3E;gradientColor=none;strokeColor=#232F3E;fillColor=#ffffff;dashed=0;verticalLabelPosition=bottom;verticalAlign=top;align=center;html=1;fontSize=12;fontStyle=0;aspect=fixed;shape=mxgraph.aws4.resourceIcon;resIcon=mxgraph.aws4.instance;" parent="1" vertex="1">
          <mxGeometry x="1260" y="30" width="60" height="60" as="geometry" />
        </mxCell>
        <mxCell id="_8k46CDn7pCFzb-syn-X-4" value="Instance&lt;br&gt;general purpose" style="sketch=0;outlineConnect=0;fontColor=#232F3E;gradientColor=none;strokeColor=#232F3E;fillColor=#ffffff;dashed=0;verticalLabelPosition=bottom;verticalAlign=top;align=center;html=1;fontSize=12;fontStyle=0;aspect=fixed;shape=mxgraph.aws4.resourceIcon;resIcon=mxgraph.aws4.instance;" parent="1" vertex="1">
          <mxGeometry x="173" y="133" width="60" height="60" as="geometry" />
        </mxCell>
        <mxCell id="_8k46CDn7pCFzb-syn-X-5" value="" style="shape=partialRectangle;whiteSpace=wrap;html=1;bottom=1;right=1;left=1;top=0;fillColor=none;routingCenterX=-0.5;rotation=-180;direction=east;" parent="1" vertex="1">
          <mxGeometry x="66" y="240" width="278" height="15" as="geometry" />
        </mxCell>
        <mxCell id="_8k46CDn7pCFzb-syn-X-6" value="" style="line;strokeWidth=2;direction=south;html=1;" parent="1" vertex="1">
          <mxGeometry x="201" y="230" width="1" height="11" as="geometry" />
        </mxCell>
        <mxCell id="_8k46CDn7pCFzb-syn-X-7" value="" style="line;strokeWidth=2;direction=south;html=1;" parent="1" vertex="1">
          <mxGeometry x="180" y="240" width="1" height="11" as="geometry" />
        </mxCell>
        <mxCell id="_8k46CDn7pCFzb-syn-X-9" value="&lt;font style=&quot;font-size: 14px;&quot;&gt;T&lt;/font&gt;" style="text;html=1;align=center;verticalAlign=middle;resizable=0;points=[];autosize=1;strokeColor=none;fillColor=none;" parent="1" vertex="1">
          <mxGeometry x="56" y="256" width="20" height="20" as="geometry" />
        </mxCell>
        <mxCell id="_8k46CDn7pCFzb-syn-X-10" value="M" style="text;html=1;align=center;verticalAlign=middle;resizable=0;points=[];autosize=1;strokeColor=none;fillColor=none;fontSize=14;" parent="1" vertex="1">
          <mxGeometry x="163" y="250" width="30" height="20" as="geometry" />
        </mxCell>
        <mxCell id="_8k46CDn7pCFzb-syn-X-11" value="Mac" style="text;html=1;align=center;verticalAlign=middle;resizable=0;points=[];autosize=1;strokeColor=none;fillColor=none;fontSize=14;" parent="1" vertex="1">
          <mxGeometry x="248" y="252" width="40" height="20" as="geometry" />
        </mxCell>
        <mxCell id="_8k46CDn7pCFzb-syn-X-12" value="A" style="text;html=1;align=center;verticalAlign=middle;resizable=0;points=[];autosize=1;strokeColor=none;fillColor=none;fontSize=14;" parent="1" vertex="1">
          <mxGeometry x="335" y="255" width="20" height="20" as="geometry" />
        </mxCell>
        <mxCell id="_8k46CDn7pCFzb-syn-X-13" value="" style="line;strokeWidth=2;direction=south;html=1;" parent="1" vertex="1">
          <mxGeometry x="266" y="241" width="1" height="11" as="geometry" />
        </mxCell>
        <mxCell id="_8k46CDn7pCFzb-syn-X-15" value="&lt;font style=&quot;font-size: 12px;&quot;&gt;burstable&amp;nbsp;&lt;br&gt;instances&lt;br&gt;&lt;/font&gt;" style="text;html=1;align=center;verticalAlign=middle;resizable=0;points=[];autosize=1;strokeColor=none;fillColor=none;fontSize=15;" parent="1" vertex="1">
          <mxGeometry x="37" y="272" width="70" height="40" as="geometry" />
        </mxCell>
        <mxCell id="_8k46CDn7pCFzb-syn-X-16" value="" style="shape=partialRectangle;whiteSpace=wrap;html=1;bottom=1;right=1;left=1;top=0;fillColor=none;routingCenterX=-0.5;rotation=-180;direction=east;" parent="1" vertex="1">
          <mxGeometry x="25" y="386" width="257" height="15" as="geometry" />
        </mxCell>
        <mxCell id="_8k46CDn7pCFzb-syn-X-17" value="" style="line;strokeWidth=2;direction=south;html=1;" parent="1" vertex="1">
          <mxGeometry x="62" y="372" width="1" height="11" as="geometry" />
        </mxCell>
        <mxCell id="_8k46CDn7pCFzb-syn-X-18" value="" style="line;strokeWidth=2;direction=south;html=1;" parent="1" vertex="1">
          <mxGeometry x="76" y="387" width="1" height="16" as="geometry" />
        </mxCell>
        <mxCell id="_8k46CDn7pCFzb-syn-X-22" value="T4g" style="text;html=1;align=center;verticalAlign=middle;resizable=0;points=[];autosize=1;strokeColor=none;fillColor=none;fontSize=12;" parent="1" vertex="1">
          <mxGeometry x="6" y="402" width="40" height="20" as="geometry" />
        </mxCell>
        <mxCell id="_8k46CDn7pCFzb-syn-X-23" value="T3a" style="text;html=1;align=center;verticalAlign=middle;resizable=0;points=[];autosize=1;strokeColor=none;fillColor=none;fontSize=12;" parent="1" vertex="1">
          <mxGeometry x="59" y="403" width="40" height="20" as="geometry" />
        </mxCell>
        <mxCell id="_8k46CDn7pCFzb-syn-X-24" value="T3" style="text;html=1;align=center;verticalAlign=middle;resizable=0;points=[];autosize=1;strokeColor=none;fillColor=none;fontSize=12;" parent="1" vertex="1">
          <mxGeometry x="106" y="403" width="30" height="20" as="geometry" />
        </mxCell>
        <mxCell id="_8k46CDn7pCFzb-syn-X-25" value="T2" style="text;html=1;align=center;verticalAlign=middle;resizable=0;points=[];autosize=1;strokeColor=none;fillColor=none;fontSize=12;" parent="1" vertex="1">
          <mxGeometry x="136.5" y="403" width="30" height="20" as="geometry" />
        </mxCell>
        <mxCell id="_8k46CDn7pCFzb-syn-X-26" value="" style="line;strokeWidth=2;direction=south;html=1;" parent="1" vertex="1">
          <mxGeometry x="120" y="387" width="1" height="16" as="geometry" />
        </mxCell>
        <mxCell id="JC6SgRXy9MHT9SMiRejr-1" value="&lt;font style=&quot;font-size: 10px;&quot;&gt;&lt;b&gt;Instances&amp;nbsp; acumulate &lt;br&gt;credits when a workload&amp;nbsp;&lt;br&gt;is operating below &lt;br&gt;baseline threshold&lt;/b&gt;&lt;/font&gt;" style="text;html=1;align=left;verticalAlign=middle;resizable=0;points=[];autosize=1;strokeColor=none;fillColor=none;" vertex="1" parent="1">
          <mxGeometry x="22" y="306" width="130" height="70" as="geometry" />
        </mxCell>
        <mxCell id="JC6SgRXy9MHT9SMiRejr-3" value="" style="strokeWidth=1;html=1;shape=mxgraph.flowchart.annotation_1;align=left;pointerEvents=1;fontColor=#000033;fillColor=none;direction=west;strokeColor=#3399FF;" vertex="1" parent="1">
          <mxGeometry x="129" y="310" width="12" height="58" as="geometry" />
        </mxCell>
        <mxCell id="JC6SgRXy9MHT9SMiRejr-4" value="" style="strokeWidth=1;html=1;shape=mxgraph.flowchart.annotation_1;align=left;pointerEvents=1;fontColor=#000033;fillColor=none;strokeColor=#3399FF;" vertex="1" parent="1">
          <mxGeometry x="190" y="530" width="12" height="58" as="geometry" />
        </mxCell>
        <mxCell id="JC6SgRXy9MHT9SMiRejr-5" value="" style="strokeWidth=1;html=1;shape=mxgraph.flowchart.annotation_1;align=left;pointerEvents=1;fontColor=#000033;fillColor=none;strokeColor=#3399FF;" vertex="1" parent="1">
          <mxGeometry x="19" y="310" width="12" height="58" as="geometry" />
        </mxCell>
        <mxCell id="JC6SgRXy9MHT9SMiRejr-7" value="lowest cost EC2 Instance&lt;br&gt;20% lower vs T3&lt;br&gt;40% + price/performance" style="text;html=1;align=center;verticalAlign=middle;resizable=0;points=[];autosize=1;strokeColor=none;fillColor=none;fontSize=10;" vertex="1" parent="1">
          <mxGeometry x="11" y="430" width="130" height="40" as="geometry" />
        </mxCell>
      </root>
    </mxGraphModel>
  </diagram>
</mxfile>
